<svg id="White_Grad_BKG" data-name="White Grad BKG" xmlns="http://www.w3.org/2000/svg" xmlns:xlink="http://www.w3.org/1999/xlink" viewBox="0 0 830 600"><defs><style>.cls-1{fill:url(#radial-gradient);}.cls-2,.cls-3{font-size:10px;}.cls-2,.cls-3,.cls-4,.cls-9{fill:#dd4f52;}.cls-10,.cls-12,.cls-13,.cls-14,.cls-2,.cls-3{font-family:Proxima Nova;}.cls-10,.cls-12,.cls-3{font-weight:700;}.cls-5{fill:#55bddc;}.cls-6{fill:none;}.cls-6,.cls-8,.cls-9{stroke:#575756;stroke-width:3px;}.cls-7{fill:#4cae4c;}.cls-8{fill:#de9450;}.cls-8,.cls-9{stroke-miterlimit:10;}.cls-10,.cls-12,.cls-13,.cls-14{isolation:isolate;}.cls-10{font-size:24px;}.cls-10,.cls-14{fill:#575756;}.cls-11{letter-spacing:-2px;}.cls-12,.cls-13,.cls-14{font-size:14px;}.cls-12,.cls-13{fill:#fff;}.cls-15{letter-spacing:-1px;}.cls-16{fill:url(#linear-gradient);}.cls-17{fill:url(#linear-gradient-2);}</style><radialGradient id="radial-gradient" cx="415" cy="300.5" r="362.19" gradientUnits="userSpaceOnUse"><stop offset="0" stop-color="#ededed"/><stop offset="1" stop-color="#dadada"/></radialGradient><linearGradient id="linear-gradient" x1="436" y1="380.81" x2="678.19" y2="380.81" gradientUnits="userSpaceOnUse"><stop offset="0" stop-color="#55bddc"/><stop offset="1" stop-color="#4cae4c"/></linearGradient><linearGradient id="linear-gradient-2" x1="153.5" y1="379.81" x2="395.5" y2="379.81" xlink:href="#linear-gradient"/></defs><title>Blockchain As A Distributed Ledger</title><rect class="cls-1" y="0.27" width="830" height="600.46"/><text class="cls-2" transform="translate(674.14 576.65)">Copyright<tspan x="42.1" y="0"> </tspan><tspan x="44.62" y="0">2016 </tspan></text><text class="cls-3" transform="translate(742.05 576.65)">B9lab</text><text class="cls-2" transform="translate(768.58 576.65)">,<tspan x="2.19" y="0"> </tspan><tspan x="4.71" y="0">Ltd</tspan></text><path class="cls-4" d="M816.67,562.35V586H793V562.35h23.64m0.68-.68h-25v25h25v-25h0Z"/><path class="cls-4" d="M797.5,575.22v7.34a0.69,0.69,0,0,0,.67.84,1.53,1.53,0,0,0,.79-0.23l0.1,1.08a3.38,3.38,0,0,1-1.39.31,1.43,1.43,0,0,1-1.53-1.68v-7.65h1.35Z"/><path class="cls-4" d="M800.46,578a6.91,6.91,0,0,1,2.48-.47,2.42,2.42,0,0,1,2.73,2.58v4.32h-1.35v-0.74a3,3,0,0,1-2.16.87,2,2,0,0,1-2.31-2c0-1.62,1.31-2.4,3.19-2.4a6.32,6.32,0,0,1,1.28.13v-0.08a1.31,1.31,0,0,0-1.49-1.49,5.21,5.21,0,0,0-2.13.48Zm2.11,5.48a2.63,2.63,0,0,0,1.75-.69v-1.57a4.43,4.43,0,0,0-1-.12c-1.19,0-2.11.39-2.11,1.27A1.15,1.15,0,0,0,802.57,583.48Z"/><path class="cls-4" d="M810.35,584.55a2.85,2.85,0,0,1-2.18-.93v0.8h-1.35v-9.2h1.35v3.2a3,3,0,0,1,2.18-.89A3.52,3.52,0,0,1,810.35,584.55ZM810,578.71a2.62,2.62,0,0,0-1.83.8v3.1a2.66,2.66,0,0,0,1.83.76A2.34,2.34,0,0,0,810,578.71Z"/><path class="cls-4" d="M796.16,563.92H800c2.11,0,3.41.83,3.41,2.63a2.23,2.23,0,0,1-1.68,2.19c1.54,0.27,2.48,1.06,2.48,2.57S803,574,800.72,574h-4.57v-10Zm3.61,4.24c1.27,0,2.1-.43,2.1-1.43s-0.77-1.48-2-1.48h-2.14v2.91h2.07Zm0.75,4.48c1.39,0,2.1-.52,2.1-1.51,0-1.15-.87-1.61-2.35-1.61h-2.57v3.12h2.82Z"/><path class="cls-4" d="M809,563.77a3.54,3.54,0,0,0-3.86,3.51c0,2,1.35,3.23,3.66,3.23a4.22,4.22,0,0,0,3.15-1.33c-0.09,2.07-1.08,3.48-3.15,3.48a5.15,5.15,0,0,1-2.75-.8l-0.47,1.24A6.74,6.74,0,0,0,809,574c2.9,0,4.5-2.07,4.5-5.08S811.88,563.77,809,563.77Zm-0.06,5.38a2,2,0,1,1,2.31-2A2.16,2.16,0,0,1,808.95,569.15Z"/><rect class="cls-5" x="153.5" y="140.54" width="242" height="26"/><rect class="cls-6" x="153.5" y="114.54" width="242" height="110"/><path class="cls-6" d="M161.92,280.22H668.08c23.7,0,42.92,16.86,42.92,37.65V511.5c0,20.79-19.22,37.65-42.92,37.65H161.92c-23.7,0-42.92-16.86-42.92-37.65V317.87C119,297.08,138.22,280.22,161.92,280.22Z"/><path class="cls-6" d="M145.94,49.85H684.06c14.88,0,26.94,12.53,26.94,28V221.75c0,15.45-12.06,28-26.94,28H145.94c-14.88,0-26.94-12.53-26.94-28V77.84C119,62.38,131.06,49.85,145.94,49.85Z"/><rect class="cls-7" x="435.5" y="140.54" width="242" height="26"/><path class="cls-8" d="M435.5,140.54v-26h242v26h-242Z"/><path class="cls-9" d="M153.5,140.54v-26h242v26h-242Z"/><text class="cls-10" transform="translate(339.29 91.04)"><tspan class="cls-11">T</tspan><tspan x="11.62" y="0">oday</tspan><tspan x="64.8" y="0">’</tspan><tspan x="70.2" y="0">s </tspan><tspan x="87.79" y="0">W</tspan><tspan x="108.86" y="0">orld</tspan></text><text class="cls-12" transform="translate(227.82 131.01)">L<tspan x="7.17" y="0">edger Bank A</tspan></text><text class="cls-13" transform="translate(159.5 159.04)">Debit A1, Send Credit to B, ref B1</text><text class="cls-14" transform="translate(159.5 185.04)"><tspan class="cls-15">T</tspan><tspan x="6.59" y="0">ransaction A2</tspan></text><text class="cls-14" transform="translate(159.5 211.04)"><tspan class="cls-15">T</tspan><tspan x="6.59" y="0">ransaction </tspan><tspan x="72.55" y="0">A</tspan><tspan x="81.37" y="0">3</tspan></text><rect class="cls-6" x="435.5" y="114.54" width="242" height="110"/><text class="cls-12" transform="translate(509.99 131.01)">L<tspan x="7.17" y="0">edger Bank B</tspan></text><text class="cls-13" transform="translate(441.5 159.04)">R<tspan x="7.9" y="0">eceived from A, ref B1</tspan></text><text class="cls-14" transform="translate(441.5 185.04)"><tspan class="cls-15">T</tspan><tspan x="6.59" y="0">ransaction B2</tspan></text><text class="cls-14" transform="translate(441.5 211.04)"><tspan class="cls-15">T</tspan><tspan x="6.59" y="0">ransaction B3</tspan></text><rect class="cls-16" x="436" y="367.81" width="242.19" height="26"/><path class="cls-8" d="M435.5,367.5v-26h242v26h-242Z"/><rect class="cls-17" x="153.5" y="366.81" width="242" height="26"/><path class="cls-9" d="M153.5,368.5v-27h242v27h-242Z"/><text class="cls-10" transform="translate(320.63 316.31)">Bloc<tspan x="47.74" y="0">k</tspan><tspan x="60.07" y="0">chain </tspan><tspan x="125.11" y="0">W</tspan><tspan x="146.18" y="0">orld</tspan></text><text class="cls-12" transform="translate(193.1 357.29)">L<tspan x="7.17" y="0">edger Copy With Bank A</tspan></text><text class="cls-13" transform="translate(159.5 385.31)">Debit A1, Credit B1</text><text class="cls-14" transform="translate(159.5 411.31)"><tspan class="cls-15">T</tspan><tspan x="6.59" y="0">ransaction 2</tspan></text><text class="cls-14" transform="translate(159.5 437.31)"><tspan class="cls-15">T</tspan><tspan x="6.59" y="0">ransaction 3</tspan></text><text class="cls-12" transform="translate(475.27 358.29)">L<tspan x="7.17" y="0">edger Copy With Bank B</tspan></text><text class="cls-13" transform="translate(441.5 386.31)">Debit A1, Credit B1</text><text class="cls-14" transform="translate(441.5 412.31)"><tspan class="cls-15">T</tspan><tspan x="6.59" y="0">ransaction 2</tspan></text><text class="cls-14" transform="translate(441.5 438.31)"><tspan class="cls-15">T</tspan><tspan x="6.59" y="0">ransaction 3</tspan></text><rect class="cls-6" x="342.87" y="502.74" width="145.27" height="27"/><text class="cls-14" transform="translate(366.98 519.99)">Identical Copies</text><rect class="cls-6" x="153.5" y="341.81" width="242" height="110"/><rect class="cls-6" x="435.5" y="341.81" width="242" height="110"/><path class="cls-6" d="M415.5,501.61h0c0-11.46-12.49-20.75-27.89-20.75h-35.5c-15.4,0-27.89-9.29-27.89-20.75v-8.49"/><path class="cls-6" d="M415.5,501.61h0c0-11.46,12.49-20.75,27.89-20.75h35.5c15.4,0,27.89-9.29,27.89-20.75v-8.49"/></svg>